<svg width="48" height="48" viewBox="0 0 48 48" fill="none" xmlns="http://www.w3.org/2000/svg">
<circle cx="24" cy="24" r="23" fill="#1F232E" stroke="#18A4E3" stroke-width="2"/>
<g clip-path="url(#clip0_93_631)">
<path d="M21 32C16 33.5 16 29.5 14 29M28 35V31.13C28.0375 30.6532 27.9731 30.1738 27.811 29.7238C27.6489 29.2738 27.3929 28.8634 27.06 28.52C30.2 28.17 33.5 26.98 33.5 21.52C33.4997 20.1238 32.9627 18.7812 32 17.77C32.4559 16.5485 32.4236 15.1983 31.91 14C31.91 14 30.73 13.65 28 15.48C25.708 14.8588 23.292 14.8588 21 15.48C18.27 13.65 17.09 14 17.09 14C16.5764 15.1983 16.5441 16.5485 17 17.77C16.0301 18.7887 15.4925 20.1435 15.5 21.55C15.5 26.97 18.8 28.16 21.94 28.55C21.611 28.89 21.3573 29.2954 21.1953 29.7399C21.0334 30.1844 20.9668 30.6581 21 31.13V35" stroke="#18A4E3" stroke-width="2" stroke-linecap="round" stroke-linejoin="round"/>
</g>
<defs>
<clipPath id="clip0_93_631">
<rect width="24" height="24" fill="white" transform="translate(12 13)"/>
</clipPath>
</defs>
</svg>
