<svg width="432" height="243" viewBox="0 0 432 243" fill="none" xmlns="http://www.w3.org/2000/svg">
<rect x="1" y="1" width="430" height="241" rx="3" fill="#1F232E" fill-opacity="0.8"/>
<path d="M141.933 99.1591H136.251C136.176 98.5758 136.02 98.0492 135.786 97.5795C135.551 97.1098 135.24 96.7083 134.854 96.375C134.467 96.0417 134.009 95.7879 133.479 95.6136C132.956 95.4318 132.376 95.3409 131.74 95.3409C130.611 95.3409 129.638 95.6174 128.82 96.1705C128.009 96.7235 127.384 97.5227 126.945 98.5682C126.513 99.6136 126.297 100.879 126.297 102.364C126.297 103.909 126.517 105.205 126.956 106.25C127.403 107.288 128.028 108.072 128.831 108.602C129.642 109.125 130.6 109.386 131.706 109.386C132.327 109.386 132.892 109.307 133.399 109.148C133.914 108.989 134.365 108.758 134.751 108.455C135.145 108.144 135.467 107.769 135.717 107.33C135.975 106.883 136.153 106.379 136.251 105.818L141.933 105.852C141.835 106.883 141.536 107.898 141.036 108.898C140.543 109.898 139.865 110.811 139.001 111.636C138.138 112.455 137.085 113.106 135.842 113.591C134.607 114.076 133.191 114.318 131.592 114.318C129.486 114.318 127.6 113.856 125.933 112.932C124.274 112 122.964 110.644 122.001 108.864C121.039 107.083 120.558 104.917 120.558 102.364C120.558 99.803 121.047 97.6326 122.024 95.8523C123.001 94.072 124.323 92.7197 125.99 91.7955C127.657 90.8712 129.524 90.4091 131.592 90.4091C133.001 90.4091 134.304 90.6061 135.501 91C136.698 91.3864 137.751 91.9545 138.661 92.7045C139.57 93.447 140.308 94.3598 140.876 95.4432C141.445 96.5265 141.797 97.7652 141.933 99.1591ZM150.709 90.7273V114H145.152V90.7273H150.709ZM154.246 114V96.5455H159.803V114H154.246ZM157.03 94.5114C156.25 94.5114 155.579 94.2538 155.018 93.7386C154.458 93.2159 154.178 92.5871 154.178 91.8523C154.178 91.125 154.458 90.5038 155.018 89.9886C155.579 89.4659 156.25 89.2045 157.03 89.2045C157.818 89.2045 158.488 89.4659 159.041 89.9886C159.602 90.5038 159.882 91.125 159.882 91.8523C159.882 92.5871 159.602 93.2159 159.041 93.7386C158.488 94.2538 157.818 94.5114 157.03 94.5114ZM171.487 114.33C169.646 114.33 168.067 113.951 166.749 113.193C165.438 112.436 164.43 111.383 163.726 110.034C163.021 108.678 162.669 107.11 162.669 105.33C162.669 103.542 163.021 101.973 163.726 100.625C164.438 99.2689 165.449 98.2121 166.76 97.4545C168.078 96.697 169.65 96.3182 171.476 96.3182C173.089 96.3182 174.495 96.6098 175.692 97.1932C176.896 97.7765 177.836 98.6023 178.51 99.6705C179.192 100.731 179.552 101.977 179.589 103.409H174.396C174.29 102.515 173.987 101.814 173.487 101.307C172.995 100.799 172.351 100.545 171.555 100.545C170.911 100.545 170.347 100.727 169.862 101.091C169.377 101.447 168.999 101.977 168.726 102.682C168.461 103.379 168.328 104.242 168.328 105.273C168.328 106.303 168.461 107.174 168.726 107.886C168.999 108.591 169.377 109.125 169.862 109.489C170.347 109.845 170.911 110.023 171.555 110.023C172.071 110.023 172.525 109.913 172.919 109.693C173.321 109.473 173.65 109.152 173.908 108.727C174.165 108.295 174.328 107.773 174.396 107.159H179.589C179.536 108.598 179.177 109.856 178.51 110.932C177.851 112.008 176.923 112.845 175.726 113.443C174.536 114.034 173.124 114.33 171.487 114.33ZM187.445 109.42L187.467 102.795H188.24L193.149 96.5455H199.445L192.149 105.5H190.683L187.445 109.42ZM182.433 114V90.7273H187.99V114H182.433ZM193.274 114L188.706 106.75L192.365 102.807L199.695 114H193.274ZM263.996 114V90.7273H279.882V95.2955H269.621V100.068H278.871V104.648H269.621V114H263.996ZM289.581 114.33C287.748 114.33 286.172 113.955 284.854 113.205C283.543 112.447 282.532 111.394 281.82 110.045C281.115 108.689 280.763 107.117 280.763 105.33C280.763 103.534 281.115 101.962 281.82 100.614C282.532 99.2576 283.543 98.2045 284.854 97.4545C286.172 96.697 287.748 96.3182 289.581 96.3182C291.414 96.3182 292.986 96.697 294.297 97.4545C295.615 98.2045 296.626 99.2576 297.331 100.614C298.043 101.962 298.399 103.534 298.399 105.33C298.399 107.117 298.043 108.689 297.331 110.045C296.626 111.394 295.615 112.447 294.297 113.205C292.986 113.955 291.414 114.33 289.581 114.33ZM289.615 110.136C290.282 110.136 290.846 109.932 291.308 109.523C291.77 109.114 292.123 108.545 292.365 107.818C292.615 107.091 292.74 106.25 292.74 105.295C292.74 104.326 292.615 103.477 292.365 102.75C292.123 102.023 291.77 101.455 291.308 101.045C290.846 100.636 290.282 100.432 289.615 100.432C288.926 100.432 288.342 100.636 287.865 101.045C287.395 101.455 287.036 102.023 286.786 102.75C286.543 103.477 286.422 104.326 286.422 105.295C286.422 106.25 286.543 107.091 286.786 107.818C287.036 108.545 287.395 109.114 287.865 109.523C288.342 109.932 288.926 110.136 289.615 110.136ZM301.246 114V96.5455H306.643V99.7273H306.825C307.143 98.5758 307.662 97.7197 308.382 97.1591C309.102 96.5909 309.939 96.3068 310.893 96.3068C311.151 96.3068 311.416 96.3258 311.689 96.3636C311.962 96.3939 312.215 96.4432 312.45 96.5114V101.341C312.185 101.25 311.837 101.178 311.405 101.125C310.981 101.072 310.602 101.045 310.268 101.045C309.609 101.045 309.015 101.193 308.484 101.489C307.962 101.777 307.549 102.182 307.246 102.705C306.95 103.22 306.803 103.826 306.803 104.523V114H301.246ZM174.918 129.727V153H169.293V129.727H174.918ZM184.006 143.045V153H178.449V135.545H183.733V138.75H183.926C184.313 137.682 184.972 136.845 185.903 136.239C186.835 135.625 187.945 135.318 189.233 135.318C190.46 135.318 191.525 135.595 192.426 136.148C193.335 136.693 194.04 137.458 194.54 138.443C195.047 139.42 195.297 140.564 195.29 141.875V153H189.733V142.966C189.741 141.996 189.494 141.239 188.994 140.693C188.502 140.148 187.816 139.875 186.938 139.875C186.354 139.875 185.839 140.004 185.392 140.261C184.953 140.511 184.612 140.871 184.369 141.341C184.134 141.811 184.013 142.379 184.006 143.045ZM208.651 135.545V139.636H197.423V135.545H208.651ZM199.764 153V134.659C199.764 133.311 200.018 132.193 200.526 131.307C201.033 130.413 201.738 129.746 202.639 129.307C203.541 128.86 204.582 128.636 205.764 128.636C206.537 128.636 207.264 128.697 207.946 128.818C208.635 128.932 209.147 129.034 209.48 129.125L208.594 133.193C208.389 133.125 208.139 133.068 207.844 133.023C207.556 132.977 207.283 132.955 207.026 132.955C206.374 132.955 205.927 133.098 205.685 133.386C205.442 133.674 205.321 134.068 205.321 134.568V153H199.764ZM218.909 153.33C217.076 153.33 215.5 152.955 214.182 152.205C212.871 151.447 211.86 150.394 211.148 149.045C210.443 147.689 210.091 146.117 210.091 144.33C210.091 142.534 210.443 140.962 211.148 139.614C211.86 138.258 212.871 137.205 214.182 136.455C215.5 135.697 217.076 135.318 218.909 135.318C220.742 135.318 222.314 135.697 223.625 136.455C224.943 137.205 225.955 138.258 226.659 139.614C227.371 140.962 227.727 142.534 227.727 144.33C227.727 146.117 227.371 147.689 226.659 149.045C225.955 150.394 224.943 151.447 223.625 152.205C222.314 152.955 220.742 153.33 218.909 153.33ZM218.943 149.136C219.61 149.136 220.174 148.932 220.636 148.523C221.098 148.114 221.451 147.545 221.693 146.818C221.943 146.091 222.068 145.25 222.068 144.295C222.068 143.326 221.943 142.477 221.693 141.75C221.451 141.023 221.098 140.455 220.636 140.045C220.174 139.636 219.61 139.432 218.943 139.432C218.254 139.432 217.67 139.636 217.193 140.045C216.723 140.455 216.364 141.023 216.114 141.75C215.871 142.477 215.75 143.326 215.75 144.295C215.75 145.25 215.871 146.091 216.114 146.818C216.364 147.545 216.723 148.114 217.193 148.523C217.67 148.932 218.254 149.136 218.943 149.136ZM230.574 153V135.545H235.972V138.727H236.153C236.472 137.576 236.991 136.72 237.71 136.159C238.43 135.591 239.267 135.307 240.222 135.307C240.479 135.307 240.744 135.326 241.017 135.364C241.29 135.394 241.544 135.443 241.778 135.511V140.341C241.513 140.25 241.165 140.178 240.733 140.125C240.309 140.072 239.93 140.045 239.597 140.045C238.938 140.045 238.343 140.193 237.812 140.489C237.29 140.777 236.877 141.182 236.574 141.705C236.278 142.22 236.131 142.826 236.131 143.523V153H230.574ZM244.043 153V135.545H249.327V138.75H249.52C249.884 137.689 250.497 136.852 251.361 136.239C252.224 135.625 253.255 135.318 254.452 135.318C255.664 135.318 256.702 135.629 257.565 136.25C258.429 136.871 258.978 137.705 259.213 138.75H259.395C259.721 137.712 260.357 136.883 261.304 136.261C262.251 135.633 263.368 135.318 264.656 135.318C266.308 135.318 267.649 135.848 268.679 136.909C269.709 137.962 270.224 139.409 270.224 141.25V153H264.668V142.523C264.668 141.652 264.444 140.989 263.997 140.534C263.55 140.072 262.971 139.841 262.259 139.841C261.493 139.841 260.891 140.091 260.452 140.591C260.02 141.083 259.804 141.746 259.804 142.58V153H254.463V142.466C254.463 141.655 254.243 141.015 253.804 140.545C253.365 140.076 252.785 139.841 252.065 139.841C251.58 139.841 251.152 139.958 250.781 140.193C250.41 140.42 250.118 140.746 249.906 141.17C249.702 141.595 249.599 142.095 249.599 142.67V153H244.043ZM278.588 153.295C277.474 153.295 276.486 153.11 275.622 152.739C274.766 152.36 274.088 151.792 273.588 151.034C273.096 150.269 272.849 149.311 272.849 148.159C272.849 147.189 273.02 146.371 273.361 145.705C273.702 145.038 274.171 144.496 274.77 144.08C275.368 143.663 276.058 143.348 276.838 143.136C277.618 142.917 278.452 142.769 279.338 142.693C280.33 142.602 281.13 142.508 281.736 142.409C282.342 142.303 282.781 142.155 283.054 141.966C283.334 141.769 283.474 141.492 283.474 141.136V141.08C283.474 140.496 283.274 140.045 282.872 139.727C282.471 139.409 281.929 139.25 281.247 139.25C280.512 139.25 279.921 139.409 279.474 139.727C279.027 140.045 278.743 140.485 278.622 141.045L273.497 140.864C273.649 139.803 274.039 138.856 274.668 138.023C275.304 137.182 276.175 136.523 277.281 136.045C278.395 135.561 279.732 135.318 281.293 135.318C282.406 135.318 283.433 135.451 284.372 135.716C285.312 135.973 286.13 136.352 286.827 136.852C287.524 137.345 288.062 137.951 288.44 138.67C288.827 139.39 289.02 140.212 289.02 141.136V153H283.793V150.568H283.656C283.346 151.159 282.948 151.659 282.463 152.068C281.986 152.477 281.421 152.784 280.77 152.989C280.126 153.193 279.399 153.295 278.588 153.295ZM280.304 149.659C280.902 149.659 281.44 149.538 281.918 149.295C282.402 149.053 282.789 148.72 283.077 148.295C283.365 147.864 283.509 147.364 283.509 146.795V145.136C283.349 145.22 283.156 145.295 282.929 145.364C282.709 145.432 282.467 145.496 282.202 145.557C281.937 145.617 281.664 145.67 281.384 145.716C281.103 145.761 280.834 145.803 280.577 145.841C280.054 145.924 279.607 146.053 279.236 146.227C278.872 146.402 278.592 146.629 278.395 146.909C278.205 147.182 278.111 147.508 278.111 147.886C278.111 148.462 278.315 148.902 278.724 149.205C279.141 149.508 279.668 149.659 280.304 149.659ZM302.27 135.545V139.636H291.259V135.545H302.27ZM293.565 131.364H299.122V147.511C299.122 147.852 299.175 148.129 299.281 148.341C299.395 148.545 299.558 148.693 299.77 148.784C299.982 148.867 300.236 148.909 300.531 148.909C300.743 148.909 300.967 148.89 301.202 148.852C301.444 148.807 301.626 148.769 301.747 148.739L302.588 152.75C302.323 152.826 301.948 152.92 301.463 153.034C300.986 153.148 300.414 153.22 299.747 153.25C298.444 153.311 297.327 153.159 296.395 152.795C295.471 152.424 294.762 151.848 294.27 151.068C293.785 150.288 293.55 149.307 293.565 148.125V131.364ZM305.105 153V135.545H310.662V153H305.105ZM307.889 133.511C307.109 133.511 306.438 133.254 305.878 132.739C305.317 132.216 305.037 131.587 305.037 130.852C305.037 130.125 305.317 129.504 305.878 128.989C306.438 128.466 307.109 128.205 307.889 128.205C308.677 128.205 309.348 128.466 309.901 128.989C310.461 129.504 310.741 130.125 310.741 130.852C310.741 131.587 310.461 132.216 309.901 132.739C309.348 133.254 308.677 133.511 307.889 133.511ZM322.347 153.33C320.513 153.33 318.938 152.955 317.619 152.205C316.309 151.447 315.297 150.394 314.585 149.045C313.881 147.689 313.528 146.117 313.528 144.33C313.528 142.534 313.881 140.962 314.585 139.614C315.297 138.258 316.309 137.205 317.619 136.455C318.938 135.697 320.513 135.318 322.347 135.318C324.18 135.318 325.752 135.697 327.062 136.455C328.381 137.205 329.392 138.258 330.097 139.614C330.809 140.962 331.165 142.534 331.165 144.33C331.165 146.117 330.809 147.689 330.097 149.045C329.392 150.394 328.381 151.447 327.062 152.205C325.752 152.955 324.18 153.33 322.347 153.33ZM322.381 149.136C323.047 149.136 323.612 148.932 324.074 148.523C324.536 148.114 324.888 147.545 325.131 146.818C325.381 146.091 325.506 145.25 325.506 144.295C325.506 143.326 325.381 142.477 325.131 141.75C324.888 141.023 324.536 140.455 324.074 140.045C323.612 139.636 323.047 139.432 322.381 139.432C321.691 139.432 321.108 139.636 320.631 140.045C320.161 140.455 319.801 141.023 319.551 141.75C319.309 142.477 319.188 143.326 319.188 144.295C319.188 145.25 319.309 146.091 319.551 146.818C319.801 147.545 320.161 148.114 320.631 148.523C321.108 148.932 321.691 149.136 322.381 149.136ZM339.568 143.045V153H334.011V135.545H339.295V138.75H339.489C339.875 137.682 340.534 136.845 341.466 136.239C342.398 135.625 343.508 135.318 344.795 135.318C346.023 135.318 347.087 135.595 347.989 136.148C348.898 136.693 349.602 137.458 350.102 138.443C350.61 139.42 350.86 140.564 350.852 141.875V153H345.295V142.966C345.303 141.996 345.057 141.239 344.557 140.693C344.064 140.148 343.379 139.875 342.5 139.875C341.917 139.875 341.402 140.004 340.955 140.261C340.515 140.511 340.174 140.871 339.932 141.341C339.697 141.811 339.576 142.379 339.568 143.045Z" fill="white"/>
<path d="M208.308 90.7273H215.274L221.183 105.136H221.456L227.365 90.7273H234.331V114H228.854V99.7045H228.661L223.07 113.852H219.57L213.979 99.625H213.786V114H208.308V90.7273ZM245.999 114.33C244.173 114.33 242.597 113.97 241.271 113.25C239.953 112.523 238.938 111.489 238.226 110.148C237.521 108.799 237.169 107.197 237.169 105.341C237.169 103.538 237.525 101.962 238.237 100.614C238.949 99.2576 239.953 98.2045 241.249 97.4545C242.544 96.697 244.071 96.3182 245.828 96.3182C247.071 96.3182 248.207 96.5114 249.237 96.8977C250.268 97.2841 251.158 97.8561 251.908 98.6136C252.658 99.3712 253.241 100.307 253.658 101.42C254.074 102.527 254.283 103.795 254.283 105.227V106.614H239.112V103.386H249.112C249.105 102.795 248.964 102.269 248.692 101.807C248.419 101.345 248.044 100.985 247.567 100.727C247.097 100.462 246.555 100.33 245.942 100.33C245.321 100.33 244.764 100.47 244.271 100.75C243.779 101.023 243.389 101.398 243.101 101.875C242.813 102.345 242.661 102.879 242.646 103.477V106.761C242.646 107.473 242.786 108.098 243.067 108.636C243.347 109.167 243.745 109.58 244.26 109.875C244.775 110.17 245.389 110.318 246.101 110.318C246.593 110.318 247.04 110.25 247.442 110.114C247.843 109.977 248.188 109.777 248.476 109.511C248.764 109.246 248.98 108.92 249.124 108.534L254.226 108.682C254.014 109.826 253.548 110.822 252.828 111.67C252.116 112.511 251.18 113.167 250.021 113.636C248.862 114.098 247.521 114.33 245.999 114.33ZM81.2301 129.727H88.196L94.1051 144.136H94.3778L100.287 129.727H107.253V153H101.776V138.705H101.582L95.9915 152.852H92.4915L86.9006 138.625H86.7074V153H81.2301V129.727ZM118.909 153.33C117.076 153.33 115.5 152.955 114.182 152.205C112.871 151.447 111.86 150.394 111.148 149.045C110.443 147.689 110.091 146.117 110.091 144.33C110.091 142.534 110.443 140.962 111.148 139.614C111.86 138.258 112.871 137.205 114.182 136.455C115.5 135.697 117.076 135.318 118.909 135.318C120.742 135.318 122.314 135.697 123.625 136.455C124.943 137.205 125.955 138.258 126.659 139.614C127.371 140.962 127.727 142.534 127.727 144.33C127.727 146.117 127.371 147.689 126.659 149.045C125.955 150.394 124.943 151.447 123.625 152.205C122.314 152.955 120.742 153.33 118.909 153.33ZM118.943 149.136C119.61 149.136 120.174 148.932 120.636 148.523C121.098 148.114 121.451 147.545 121.693 146.818C121.943 146.091 122.068 145.25 122.068 144.295C122.068 143.326 121.943 142.477 121.693 141.75C121.451 141.023 121.098 140.455 120.636 140.045C120.174 139.636 119.61 139.432 118.943 139.432C118.254 139.432 117.67 139.636 117.193 140.045C116.723 140.455 116.364 141.023 116.114 141.75C115.871 142.477 115.75 143.326 115.75 144.295C115.75 145.25 115.871 146.091 116.114 146.818C116.364 147.545 116.723 148.114 117.193 148.523C117.67 148.932 118.254 149.136 118.943 149.136ZM130.574 153V135.545H135.972V138.727H136.153C136.472 137.576 136.991 136.72 137.71 136.159C138.43 135.591 139.267 135.307 140.222 135.307C140.479 135.307 140.744 135.326 141.017 135.364C141.29 135.394 141.544 135.443 141.778 135.511V140.341C141.513 140.25 141.165 140.178 140.733 140.125C140.309 140.072 139.93 140.045 139.597 140.045C138.938 140.045 138.343 140.193 137.812 140.489C137.29 140.777 136.877 141.182 136.574 141.705C136.278 142.22 136.131 142.826 136.131 143.523V153H130.574ZM151.295 153.33C149.47 153.33 147.894 152.97 146.568 152.25C145.25 151.523 144.235 150.489 143.523 149.148C142.818 147.799 142.466 146.197 142.466 144.341C142.466 142.538 142.822 140.962 143.534 139.614C144.246 138.258 145.25 137.205 146.545 136.455C147.841 135.697 149.367 135.318 151.125 135.318C152.367 135.318 153.504 135.511 154.534 135.898C155.564 136.284 156.455 136.856 157.205 137.614C157.955 138.371 158.538 139.307 158.955 140.42C159.371 141.527 159.58 142.795 159.58 144.227V145.614H144.409V142.386H154.409C154.402 141.795 154.261 141.269 153.989 140.807C153.716 140.345 153.341 139.985 152.864 139.727C152.394 139.462 151.852 139.33 151.239 139.33C150.617 139.33 150.061 139.47 149.568 139.75C149.076 140.023 148.686 140.398 148.398 140.875C148.11 141.345 147.958 141.879 147.943 142.477V145.761C147.943 146.473 148.083 147.098 148.364 147.636C148.644 148.167 149.042 148.58 149.557 148.875C150.072 149.17 150.686 149.318 151.398 149.318C151.89 149.318 152.337 149.25 152.739 149.114C153.14 148.977 153.485 148.777 153.773 148.511C154.061 148.246 154.277 147.92 154.42 147.534L159.523 147.682C159.311 148.826 158.845 149.822 158.125 150.67C157.413 151.511 156.477 152.167 155.318 152.636C154.159 153.098 152.818 153.33 151.295 153.33Z" fill="#18A4E3"/>
<rect x="1" y="1" width="430" height="241" rx="3" stroke="#18A4E3" strokeWidth="2"/>
</svg>
